<svg id="Icon_Set" enable-background="new 0 0 256 256" height="512" viewBox="0 0 256 256" width="512" xmlns="http://www.w3.org/2000/svg"><path d="m109.207 61.042h97.714c2.761 0 5 2.239 5 5v97.714h-97.714c-2.761 0-5-2.239-5-5z" fill="#3193f3"/><path d="m211.92 66.041v97.72h-15v-97.72c0-2.76-2.24-5-5-5h15c2.76 0 5 2.24 5 5z" fill="#307fed"/><path d="m129.21 163.761h-15c-2.76 0-5-2.24-5-5v-97.72h15v97.72c0 2.76 2.24 5 5 5z" fill="#35b1fc"/><path d="m34.228 248.677h29v-170.639c0-2.761-2.239-5-5-5h-24c-2.761 0-5 2.239-5 5v165.638c0 2.762 2.239 5.001 5 5.001z" fill="#f9d335"/><path d="m120.309 9.141c1.924-3.333 6.736-3.333 8.66 0l18.534 32.101 18.532 32.101c1.924 3.333-.481 7.5-4.33 7.5h-37.066-37.066c-3.849 0-6.255-4.167-4.33-7.5l18.534-32.101z" fill="#ff4a73"/><circle cx="184.077" cy="156.331" fill="#44c7b6" r="42.695"/><path d="m49.23 248.681h-15c-2.76 0-5-2.24-5-5v-165.64c0-2.76 2.24-5 5-5h15c-2.76 0-5 2.24-5 5v165.64c0 2.76 2.24 5 5 5z" fill="#f9e27d"/><path d="m29.228 243.677v-29h170.638c2.761 0 5 2.239 5 5v24c0 2.761-2.239 5-5 5h-165.638c-2.761 0-5-2.239-5-5z" fill="#f9d335"/><path d="m204.87 219.681v24c0 2.76-2.24 5-5 5h-15c2.76 0 5-2.24 5-5v-24c0-2.77-2.24-5-5-5h15c2.76 0 5 2.23 5 5z" fill="#f2c300"/><path d="m49.23 248.681h-15c-2.76 0-5-2.24-5-5v-29h15v29c0 2.76 2.24 5 5 5z" fill="#f9e27d"/><path d="m161.71 80.841h-15c3.84 0 6.25-4.17 4.33-7.5l-18.54-32.1-15.36-26.61 3.17-5.49c1.92-3.33 6.74-3.33 8.66 0l18.53 32.1 18.54 32.1c1.92 3.33-.49 7.5-4.33 7.5z" fill="#ea2a6a"/><path d="m98.24 73.341c-1.92 3.33.48 7.5 4.33 7.5h-15c-3.85 0-6.25-4.17-4.33-7.5l18.54-32.1 18.53-32.1c1.92-3.33 6.74-3.33 8.66 0l3.17 5.49-15.36 26.61z" fill="#f973a3"/><path d="m226.77 156.331c0 23.58-19.11 42.69-42.69 42.69-2.56 0-5.06-.23-7.5-.66 20-3.54 35.19-21.01 35.19-42.03s-15.19-38.5-35.19-42.04c2.44-.43 4.94-.66 7.5-.66 23.58 0 42.69 19.12 42.69 42.7z" fill="#3bb2a0"/><path d="m191.58 198.361c-2.44.43-4.94.66-7.5.66-23.58 0-42.7-19.11-42.7-42.69s19.12-42.7 42.7-42.7c2.56 0 5.06.23 7.5.66-20 3.54-35.2 21.02-35.2 42.04s15.2 38.49 35.2 42.03z" fill="#4bdbc3"/><g fill="#5f266d"><path d="m199.87 211.021h-132.64v-132.64c0-4.97-4.04-9-9-9h-24c-4.97 0-9 4.03-9 9v165.64c0 4.96 4.03 9 9 9h165.64c4.96 0 9-4.04 9-9v-24c0-4.97-4.04-9-9-9zm1 33c0 .55-.45 1-1 1h-8.09v-4.76c0-5.285-8-5.293-8 0v4.76h-12v-13.25c0-5.285-8-5.293-8 0v13.25h-12v-4.76c0-2.21-1.79-4-4-4s-4 1.79-4 4v4.76h-12v-13.25c0-5.285-8-5.293-8 0v13.25h-12v-4.76c0-2.21-1.79-4-4-4s-4 1.79-4 4v4.76h-12v-13.25c0-5.285-8-5.293-8 0v13.25h-12v-4.76c0-2.21-1.79-4-4-4-.19 0-.37.01-.55.04-1.95.27-3.45 1.94-3.45 3.96v4.76h-.55-11.45v-13.25c0-5.285-8-5.293-8 0v13.25h-9.55c-.55 0-1-.45-1-1v-25h166.64c.55 0 1 .44 1 1zm-154.64-153.86h-13v-11.78c0-.55.45-1 1-1h24c.55 0 1 .45 1 1v132.64h-26v-12.86h6.3c5.285 0 5.293-8 0-8h-6.3v-12h13.55c5.285 0 5.293-8 0-8h-13.55v-12h6.3c5.285 0 5.293-8 0-8h-6.3v-12h13.55c5.285 0 5.293-8 0-8h-13.55v-12h6.3c5.285 0 5.293-8 0-8h-6.3v-12h13c5.285 0 5.293-8 0-8z"/><path d="m215.92 122.541v-56.16c0-4.96-4.04-9-9-9h-45.68l-28.81-49.9c-3.444-5.995-12.127-6.011-15.58 0l-37.07 64.2c-3.474 6.01.876 13.5 7.79 13.5h17.64v73.92c0 4.96 4.03 9 9 9h24.59c5.11 20.24 23.47 35.26 45.28 35.26 25.75 0 46.69-20.94 46.69-46.69 0-13.45-5.72-25.6-14.85-34.13zm-31.84 72.82c-20.319 0-36.848-15.681-38.55-35.26-2.011-22.705 15.952-42.13 38.55-42.13 21.298 0 38.69 17.343 38.69 38.7 0 21.34-17.36 38.69-38.69 38.69zm-97.37-119.68 37.06-64.2c.39-.667 1.347-.672 1.74 0 19.639 34.016 37.06 64.2 37.06 64.2.384.655-.078 1.5-.86 1.5-14.121 0-58.06 0-74.14 0-.782 0-1.244-.845-.86-1.5zm27.5 84.42c-.55 0-1-.45-1-1v-73.92h48.5c6.914 0 11.264-7.49 7.79-13.5l-3.64-6.3h41.06c.55 0 1 .45 1 1v50.15c-6.98-4.17-15.13-6.56-23.84-6.56-27.549 0-48.675 23.726-46.57 50.13z"/><path d="m161.8 161.891c-.718-8.463 1.78-18.355 5.52-25.83 2.513-4.666-4.526-8.445-7.04-3.8-4.17 7.722-7.339 20.121-6.45 30.27.432 5.308 8.404 4.666 7.97-.64z"/><path d="m165.56 174.491c-2.614-4.603-9.566-.64-6.96 3.95.59 1.04 1.24 2.06 1.93 3.05 3.038 4.284 9.624-.239 6.54-4.61-.54-.77-1.05-1.58-1.51-2.39z"/></g></svg>